<mxfile host="app.diagrams.net" modified="2023-05-26T03:26:25.712Z" agent="Mozilla/5.0 (Windows NT 10.0; Win64; x64) AppleWebKit/537.36 (KHTML, like Gecko) Chrome/113.0.0.0 Safari/537.36 Edg/113.0.1774.50" etag="VjDEnEVGeWNvK9vfvF28" version="21.3.4" type="github">
  <diagram name="Page-1" id="b3dVDvIeKJ-f99Pgw6TJ">
    <mxGraphModel dx="1192" dy="1508" grid="1" gridSize="10" guides="1" tooltips="1" connect="1" arrows="1" fold="1" page="1" pageScale="1" pageWidth="850" pageHeight="1100" math="0" shadow="0">
      <root>
        <mxCell id="0" />
        <mxCell id="1" parent="0" />
        <mxCell id="ESShFr3eKv7B14Bm_Qjz-2" value="" style="rounded=0;whiteSpace=wrap;html=1;" vertex="1" parent="1">
          <mxGeometry x="210" y="240" width="460" height="550" as="geometry" />
        </mxCell>
        <mxCell id="ESShFr3eKv7B14Bm_Qjz-3" value="&lt;font style=&quot;font-size: 16px;&quot;&gt;Process Elevator &lt;br&gt;Request&lt;/font&gt;" style="ellipse;whiteSpace=wrap;html=1;" vertex="1" parent="1">
          <mxGeometry x="245" y="290" width="180" height="70" as="geometry" />
        </mxCell>
        <mxCell id="ESShFr3eKv7B14Bm_Qjz-4" value="&lt;font style=&quot;font-size: 16px;&quot;&gt;Select the Destination&lt;br&gt;&amp;nbsp;Floor&lt;/font&gt;" style="ellipse;whiteSpace=wrap;html=1;" vertex="1" parent="1">
          <mxGeometry x="245" y="650" width="180" height="70" as="geometry" />
        </mxCell>
        <mxCell id="ESShFr3eKv7B14Bm_Qjz-5" value="Actor" style="shape=umlActor;verticalLabelPosition=bottom;verticalAlign=top;html=1;outlineConnect=0;" vertex="1" parent="1">
          <mxGeometry x="50" y="450" width="30" height="80" as="geometry" />
        </mxCell>
        <mxCell id="ESShFr3eKv7B14Bm_Qjz-6" value="" style="endArrow=classic;html=1;rounded=0;entryX=0;entryY=0.5;entryDx=0;entryDy=0;" edge="1" parent="1" target="ESShFr3eKv7B14Bm_Qjz-3">
          <mxGeometry width="50" height="50" relative="1" as="geometry">
            <mxPoint x="90" y="480" as="sourcePoint" />
            <mxPoint x="490" y="320" as="targetPoint" />
          </mxGeometry>
        </mxCell>
        <mxCell id="ESShFr3eKv7B14Bm_Qjz-7" value="" style="endArrow=classic;html=1;rounded=0;entryX=0;entryY=0.5;entryDx=0;entryDy=0;" edge="1" parent="1" target="ESShFr3eKv7B14Bm_Qjz-4">
          <mxGeometry width="50" height="50" relative="1" as="geometry">
            <mxPoint x="90" y="480" as="sourcePoint" />
            <mxPoint x="255" y="335" as="targetPoint" />
          </mxGeometry>
        </mxCell>
        <mxCell id="ESShFr3eKv7B14Bm_Qjz-8" value="&lt;span style=&quot;font-size: 16px;&quot;&gt;More / Stop elevator&lt;/span&gt;" style="ellipse;whiteSpace=wrap;html=1;" vertex="1" parent="1">
          <mxGeometry x="470" y="290" width="180" height="70" as="geometry" />
        </mxCell>
        <mxCell id="ESShFr3eKv7B14Bm_Qjz-9" value="&lt;span style=&quot;font-size: 16px;&quot;&gt;Open close elevator door&lt;/span&gt;" style="ellipse;whiteSpace=wrap;html=1;" vertex="1" parent="1">
          <mxGeometry x="470" y="400" width="180" height="70" as="geometry" />
        </mxCell>
        <mxCell id="ESShFr3eKv7B14Bm_Qjz-10" value="&lt;span style=&quot;font-size: 16px;&quot;&gt;Indicates floor No&lt;/span&gt;" style="ellipse;whiteSpace=wrap;html=1;" vertex="1" parent="1">
          <mxGeometry x="470" y="530" width="180" height="70" as="geometry" />
        </mxCell>
        <mxCell id="ESShFr3eKv7B14Bm_Qjz-11" value="&lt;span style=&quot;font-size: 16px;&quot;&gt;Indicates moving direction&lt;/span&gt;" style="ellipse;whiteSpace=wrap;html=1;" vertex="1" parent="1">
          <mxGeometry x="470" y="650" width="180" height="70" as="geometry" />
        </mxCell>
        <mxCell id="ESShFr3eKv7B14Bm_Qjz-12" value="Actor" style="shape=umlActor;verticalLabelPosition=bottom;verticalAlign=top;html=1;outlineConnect=0;" vertex="1" parent="1">
          <mxGeometry x="780" y="450" width="30" height="80" as="geometry" />
        </mxCell>
        <mxCell id="ESShFr3eKv7B14Bm_Qjz-13" value="" style="endArrow=classic;html=1;rounded=0;entryX=1;entryY=0.5;entryDx=0;entryDy=0;" edge="1" parent="1" target="ESShFr3eKv7B14Bm_Qjz-8">
          <mxGeometry width="50" height="50" relative="1" as="geometry">
            <mxPoint x="770" y="500" as="sourcePoint" />
            <mxPoint x="255" y="335" as="targetPoint" />
          </mxGeometry>
        </mxCell>
        <mxCell id="ESShFr3eKv7B14Bm_Qjz-14" value="" style="endArrow=classic;html=1;rounded=0;entryX=1;entryY=0.5;entryDx=0;entryDy=0;" edge="1" parent="1" target="ESShFr3eKv7B14Bm_Qjz-9">
          <mxGeometry width="50" height="50" relative="1" as="geometry">
            <mxPoint x="770" y="500" as="sourcePoint" />
            <mxPoint x="662" y="348" as="targetPoint" />
          </mxGeometry>
        </mxCell>
        <mxCell id="ESShFr3eKv7B14Bm_Qjz-15" value="" style="endArrow=classic;html=1;rounded=0;entryX=1;entryY=0.5;entryDx=0;entryDy=0;" edge="1" parent="1" target="ESShFr3eKv7B14Bm_Qjz-10">
          <mxGeometry width="50" height="50" relative="1" as="geometry">
            <mxPoint x="770" y="500" as="sourcePoint" />
            <mxPoint x="672" y="358" as="targetPoint" />
          </mxGeometry>
        </mxCell>
        <mxCell id="ESShFr3eKv7B14Bm_Qjz-16" value="" style="endArrow=classic;html=1;rounded=0;entryX=1;entryY=0.5;entryDx=0;entryDy=0;" edge="1" parent="1" target="ESShFr3eKv7B14Bm_Qjz-11">
          <mxGeometry width="50" height="50" relative="1" as="geometry">
            <mxPoint x="770" y="500" as="sourcePoint" />
            <mxPoint x="682" y="368" as="targetPoint" />
          </mxGeometry>
        </mxCell>
      </root>
    </mxGraphModel>
  </diagram>
</mxfile>
